{"title":"Sons Of Anarchy s04e08 HDTV XViD AC3 DTRG","uid":6772385,"size":689580078,"categoryP":"video","categoryS":"tv_shows","magnet":"?xt=urn:btih:649f1332a9fdd035c7d56e4b1dc6034e32822f7d&amp;dn=Sons+Of+Anarchy+s04e08+HDTV+XViD+AC3+DTRG&amp;tr=udp%3A%2F%2Ftracker.openbittorrent.com%3A80&amp;tr=udp%3A%2F%2Fopen.demonii.com%3A1337&amp;tr=udp%3A%2F%2Ftracker.coppersurfer.tk%3A6969&amp;tr=udp%3A%2F%2Fexodus.desync.com%3A6969","seeders":1,"leechers":0,"uploader":"SAFCukO09","files":2,"time":1319621197,"description":"\n\n\n\n\n\nFormat                           : AVI\nFormat/Info                      : Audio Video Interleave\nFile size                        : 658 MiB\nDuration                         : 45mn 47s\nOverall bit rate                 : 2 008 Kbps\nWriting application              : VirtualDubMod 1.5.10.2 (build 2540/release)\nWriting library                  : VirtualDubMod build 2540/release\n\nVideo\nID                               : 0\nFormat                           : MPEG-4 Visual\nFormat profile                   : Advanced Simple@L5\nFormat settings, BVOP            : 2\nFormat settings, QPel            : No\nFormat settings, GMC             : No warppoints\nFormat settings, Matrix          : Default (H.263)\nMuxing mode                      : Packed bitstream\nCodec ID                         : XVID\nCodec ID/Hint                    : XviD\nDuration                         : 45mn 47s\nBit rate                         : 1 615 Kbps\nWidth                            : 624 pixels\nHeight                           : 352 pixels\nDisplay aspect ratio             : 16:9\nFrame rate                       : 23.976 fps\nColor space                      : YUV\nChroma subsampling               : 4:2:0\nBit depth                        : 8 bits\nScan type                        : Progressive\nCompression mode                 : Lossy\nBits/(Pixel*Frame)               : 0.307\nStream size                      : 529 MiB (80%)\nWriting library                  : XviD 64\n\nAudio\nID                               : 1\nFormat                           : AC-3\nFormat/Info                      : Audio Coding 3\nMode extension                   : CM (complete main)\nCodec ID                         : 2000\nDuration                         : 45mn 47s\nBit rate mode                    : Constant\nBit rate                         : 384 Kbps\nChannel(s)                       : 6 channels\nChannel positions                : Front: L C R, Side: L R, LFE\nSampling rate                    : 48.0 KHz\nBit depth                        : 16 bits\nCompression mode                 : Lossy\nStream size                      : 126 MiB (19%)\nAlignment                        : Split accross interleaves\nInterleave, duration             : 42 ms (1.00 video frame)\nInterleave, preload duration     : 500 ms\n\n\n\n\n\n\n\n\n\nSons of Anarchy: Family Recipe\n\n\n\nSAMCRO must put off an important vote to deal with an external threat.\n\n\n\n\n\n\n\n\n\n\n\n\n\n\n\nSource Used\n\n\nIMMERSE 720p .......Thanks\n\n\n\nEnjoy\n\n\n\n\n\nGreetz to IMAGiNE,Flawl3ss,BDK,Ez,CreWsaDe,TaRiQ786,ETRG,BHRG,iLLUMiNATi,ViSUALiSE,MiSTERE\n\n\n\n\n\n\n\n\n\n","torrent":{"xt":"urn:btih:649f1332a9fdd035c7d56e4b1dc6034e32822f7d","amp;dn":"Sons+Of+Anarchy+s04e08+HDTV+XViD+AC3+DTRG","amp;tr":["udp%3A%2F%2Ftracker.openbittorrent.com%3A80","udp%3A%2F%2Fopen.demonii.com%3A1337","udp%3A%2F%2Ftracker.coppersurfer.tk%3A6969","udp%3A%2F%2Fexodus.desync.com%3A6969"],"infoHash":"649f1332a9fdd035c7d56e4b1dc6034e32822f7d","infoHashBuffer":{"type":"Buffer","data":[100,159,19,50,169,253,208,53,199,213,110,75,29,198,3,78,50,130,47,125]},"announce":[],"urlList":[]}}